{
    "asset": {
        "generator": "COLLADA2GLTF",
        "version": "2.0"
    },
    "scenes": [
        {
            "nodes": [
                0
            ]
        }
    ],
    "scene": 0,
    "nodes": [
        {
            "children": [
                7,
                6,
                5,
                4,
                3,
                2,
                1
            ],
            "matrix": [
                1.0,
                0.0,
                0.0,
                0.0,
                0.0,
                0.0,
                -1.0,
                0.0,
                0.0,
                1.0,
                0.0,
                0.0,
                0.0,
                0.0,
                0.0,
                1.0
            ],
            "name": "Z_UP"
        },
        {
            "mesh": 0,
            "matrix": [
                1.0,
                0.0,
                0.0,
                0.0,
                0.0,
                4.4896641959724089e-11,
                1.0,
                0.0,
                0.0,
                -1.0,
                4.4896641959724089e-11,
                0.0,
                0.041378095746040347,
                0.932028591632843,
                0.09910132735967636,
                1.0
            ],
            "name": "Box06"
        },
        {
            "mesh": 1,
            "matrix": [
                1.0,
                0.0,
                0.0,
                0.0,
                0.0,
                4.4896641959724089e-11,
                1.0,
                0.0,
                0.0,
                -1.0,
                4.4896641959724089e-11,
                0.0,
                0.3463957905769348,
                0.937107026576996,
                0.5028605461120606,
                1.0
            ],
            "name": "Box05"
        },
        {
            "mesh": 1,
            "matrix": [
                1.0,
                0.0,
                0.0,
                0.0,
                0.0,
                4.4896641959724089e-11,
                1.0,
                0.0,
                0.0,
                -1.0,
                4.4896641959724089e-11,
                0.0,
                -0.3410351276397705,
                0.934531033039093,
                0.5028605461120606,
                1.0
            ],
            "name": "Box04"
        },
        {
            "mesh": 2,
            "matrix": [
                1.0551990270614625,
                0.0,
                0.0,
                0.0,
                0.0,
                5.5100392998275179e-11,
                1.2272720336914065,
                0.0,
                0.0,
                -1.0,
                4.4896641959724089e-11,
                0.0,
                -0.0021296071354299785,
                -0.8488060235977173,
                0.31660082936286929,
                1.0
            ],
            "name": "Box03"
        },
        {
            "mesh": 3,
            "matrix": [
                1.0,
                0.0,
                0.0,
                0.0,
                0.0,
                0.856558620929718,
                0.0,
                0.0,
                0.0,
                0.0,
                1.0,
                0.0,
                0.0,
                0.037922583520412448,
                1.0731534957885745,
                1.0
            ],
            "name": "Box02"
        },
        {
            "mesh": 4,
            "matrix": [
                1.0,
                0.0,
                0.0,
                0.0,
                0.0,
                1.1680999994277957,
                0.0,
                0.0,
                0.0,
                0.0,
                1.0,
                0.0,
                -1.2443294525146485,
                -0.22897037863731385,
                -0.1449036002159119,
                1.0
            ],
            "name": "Box01"
        },
        {
            "mesh": 5,
            "matrix": [
                0.5555307269096375,
                0.0,
                0.0,
                0.0,
                0.0,
                0.5555307269096375,
                0.0,
                0.0,
                0.0,
                0.0,
                0.5555307269096375,
                0.0,
                0.9694869518280028,
                0.2577228844165802,
                0.3279266953468323,
                1.0
            ],
            "name": "Cylinder01"
        }
    ],
    "meshes": [
        {
            "primitives": [
                {
                    "attributes": {
                        "NORMAL": 1,
                        "POSITION": 2,
                        "TEXCOORD_0": 3
                    },
                    "indices": 0,
                    "mode": 4,
                    "material": 0
                }
            ],
            "name": "Box06"
        },
        {
            "primitives": [
                {
                    "attributes": {
                        "NORMAL": 5,
                        "POSITION": 6,
                        "TEXCOORD_0": 7
                    },
                    "indices": 4,
                    "mode": 4,
                    "material": 1
                }
            ],
            "name": "Box04"
        },
        {
            "primitives": [
                {
                    "attributes": {
                        "NORMAL": 9,
                        "POSITION": 10,
                        "TEXCOORD_0": 11
                    },
                    "indices": 8,
                    "mode": 4,
                    "material": 2
                }
            ],
            "name": "Box03"
        },
        {
            "primitives": [
                {
                    "attributes": {
                        "NORMAL": 13,
                        "POSITION": 14,
                        "TEXCOORD_0": 15
                    },
                    "indices": 12,
                    "mode": 4,
                    "material": 3
                }
            ],
            "name": "Box02"
        },
        {
            "primitives": [
                {
                    "attributes": {
                        "NORMAL": 17,
                        "POSITION": 18,
                        "TEXCOORD_0": 19
                    },
                    "indices": 16,
                    "mode": 4,
                    "material": 4
                }
            ],
            "name": "Box01"
        },
        {
            "primitives": [
                {
                    "attributes": {
                        "NORMAL": 21,
                        "POSITION": 22,
                        "TEXCOORD_0": 23
                    },
                    "indices": 20,
                    "mode": 4,
                    "material": 5
                }
            ],
            "name": "Cylinder01"
        }
    ],
    "accessors": [
        {
            "bufferView": 0,
            "byteOffset": 0,
            "componentType": 5123,
            "count": 144,
            "max": [
                53
            ],
            "min": [
                0
            ],
            "type": "SCALAR"
        },
        {
            "bufferView": 1,
            "byteOffset": 0,
            "componentType": 5126,
            "count": 54,
            "max": [
                1.0,
                1.0,
                1.0
            ],
            "min": [
                -1.0,
                -1.0,
                -1.0
            ],
            "type": "VEC3"
        },
        {
            "bufferView": 1,
            "byteOffset": 648,
            "componentType": 5126,
            "count": 54,
            "max": [
                0.07620000094175339,
                0.07620000094175339,
                0.01269999984651804
            ],
            "min": [
                -0.07620000094175339,
                -0.07620000094175339,
                0.0
            ],
            "type": "VEC3"
        },
        {
            "bufferView": 2,
            "byteOffset": 0,
            "componentType": 5126,
            "count": 54,
            "max": [
                1.0,
                1.0
            ],
            "min": [
                0.0,
                0.0
            ],
            "type": "VEC2"
        },
        {
            "bufferView": 0,
            "byteOffset": 288,
            "componentType": 5123,
            "count": 144,
            "max": [
                53
            ],
            "min": [
                0
            ],
            "type": "SCALAR"
        },
        {
            "bufferView": 1,
            "byteOffset": 1296,
            "componentType": 5126,
            "count": 54,
            "max": [
                1.0,
                1.0,
                1.0
            ],
            "min": [
                -1.0,
                -1.0,
                -1.0
            ],
            "type": "VEC3"
        },
        {
            "bufferView": 1,
            "byteOffset": 1944,
            "componentType": 5126,
            "count": 54,
            "max": [
                0.15240000188350678,
                0.15240000188350678,
                0.02539999969303608
            ],
            "min": [
                -0.15240000188350678,
                -0.15240000188350678,
                0.0
            ],
            "type": "VEC3"
        },
        {
            "bufferView": 2,
            "byteOffset": 432,
            "componentType": 5126,
            "count": 54,
            "max": [
                1.0,
                1.0
            ],
            "min": [
                0.0,
                0.0
            ],
            "type": "VEC2"
        },
        {
            "bufferView": 0,
            "byteOffset": 576,
            "componentType": 5123,
            "count": 768,
            "max": [
                189
            ],
            "min": [
                0
            ],
            "type": "SCALAR"
        },
        {
            "bufferView": 1,
            "byteOffset": 2592,
            "componentType": 5126,
            "count": 190,
            "max": [
                1.0,
                1.0,
                1.0
            ],
            "min": [
                -1.0,
                -1.0,
                -1.0
            ],
            "type": "VEC3"
        },
        {
            "bufferView": 1,
            "byteOffset": 4872,
            "componentType": 5126,
            "count": 190,
            "max": [
                0.4571999907493592,
                0.2540000081062317,
                0.005080000031739473
            ],
            "min": [
                -0.4571999907493592,
                -0.2540000081062317,
                0.0
            ],
            "type": "VEC3"
        },
        {
            "bufferView": 2,
            "byteOffset": 864,
            "componentType": 5126,
            "count": 190,
            "max": [
                1.0,
                1.0
            ],
            "min": [
                0.0,
                0.0
            ],
            "type": "VEC2"
        },
        {
            "bufferView": 0,
            "byteOffset": 2112,
            "componentType": 5123,
            "count": 768,
            "max": [
                189
            ],
            "min": [
                0
            ],
            "type": "SCALAR"
        },
        {
            "bufferView": 1,
            "byteOffset": 7152,
            "componentType": 5126,
            "count": 190,
            "max": [
                1.0,
                1.0,
                1.0
            ],
            "min": [
                -1.0,
                -1.0,
                -1.0
            ],
            "type": "VEC3"
        },
        {
            "bufferView": 1,
            "byteOffset": 9432,
            "componentType": 5126,
            "count": 190,
            "max": [
                0.855786919593811,
                1.1296387910842896,
                0.0
            ],
            "min": [
                -0.855786919593811,
                -1.1296387910842896,
                -0.4617483615875244
            ],
            "type": "VEC3"
        },
        {
            "bufferView": 2,
            "byteOffset": 2384,
            "componentType": 5126,
            "count": 190,
            "max": [
                1.0000009536743165,
                1.9999995231628416
            ],
            "min": [
                -8.642670081826509e-7,
                -1.0
            ],
            "type": "VEC2"
        },
        {
            "bufferView": 0,
            "byteOffset": 3648,
            "componentType": 5123,
            "count": 912,
            "max": [
                261
            ],
            "min": [
                0
            ],
            "type": "SCALAR"
        },
        {
            "bufferView": 1,
            "byteOffset": 11712,
            "componentType": 5126,
            "count": 262,
            "max": [
                1.0,
                1.0,
                1.0
            ],
            "min": [
                -1.0,
                -1.0,
                -1.0
            ],
            "type": "VEC3"
        },
        {
            "bufferView": 1,
            "byteOffset": 14856,
            "componentType": 5126,
            "count": 262,
            "max": [
                2.387329339981079,
                0.9909703135490418,
                1.092994213104248
            ],
            "min": [
                0.48232945799827578,
                -0.5330296754837036,
                0.1535196304321289
            ],
            "type": "VEC3"
        },
        {
            "bufferView": 2,
            "byteOffset": 3904,
            "componentType": 5126,
            "count": 262,
            "max": [
                1.0,
                1.0
            ],
            "min": [
                -2.98022992950564e-8,
                0.0
            ],
            "type": "VEC2"
        },
        {
            "bufferView": 0,
            "byteOffset": 5472,
            "componentType": 5123,
            "count": 2484,
            "max": [
                518
            ],
            "min": [
                0
            ],
            "type": "SCALAR"
        },
        {
            "bufferView": 1,
            "byteOffset": 18000,
            "componentType": 5126,
            "count": 519,
            "max": [
                0.9994043111801148,
                0.9842212200164796,
                1.0
            ],
            "min": [
                -0.9994043111801148,
                -0.9842212200164796,
                -1.0
            ],
            "type": "VEC3"
        },
        {
            "bufferView": 1,
            "byteOffset": 24228,
            "componentType": 5126,
            "count": 519,
            "max": [
                0.20319999754428864,
                0.20011292397975925,
                2.000687599182129
            ],
            "min": [
                -0.20319999754428864,
                -0.20011292397975925,
                0.0
            ],
            "type": "VEC3"
        },
        {
            "bufferView": 2,
            "byteOffset": 6000,
            "componentType": 5126,
            "count": 519,
            "max": [
                0.9722222089767456,
                2.5
            ],
            "min": [
                -0.02777778916060925,
                -1.5
            ],
            "type": "VEC2"
        }
    ],
    "materials": [
        {
            "pbrMetallicRoughness": {
                "baseColorTexture": {
                    "index": 0
                },
                "metallicFactor": 0.0
            },
            "emissiveFactor": [
                0.0,
                0.0,
                0.0
            ],
            "occlusionTexture": {
                "index": 0
            },
            "name": "_9_-_Default"
        },
        {
            "pbrMetallicRoughness": {
                "baseColorTexture": {
                    "index": 1
                },
                "metallicFactor": 0.0
            },
            "emissiveFactor": [
                0.0,
                0.0,
                0.0
            ],
            "occlusionTexture": {
                "index": 1
            },
            "name": "_8_-_Default"
        },
        {
            "pbrMetallicRoughness": {
                "baseColorTexture": {
                    "index": 2
                },
                "metallicFactor": 0.0
            },
            "emissiveFactor": [
                0.0,
                0.0,
                0.0
            ],
            "occlusionTexture": {
                "index": 2
            },
            "name": "_7_-_Default"
        },
        {
            "pbrMetallicRoughness": {
                "baseColorTexture": {
                    "index": 3
                },
                "metallicFactor": 0.0
            },
            "emissiveFactor": [
                0.0,
                0.0,
                0.0
            ],
            "occlusionTexture": {
                "index": 3
            },
            "name": "_2_-_Default"
        },
        {
            "pbrMetallicRoughness": {
                "baseColorTexture": {
                    "index": 4
                },
                "metallicFactor": 0.0
            },
            "emissiveFactor": [
                0.0,
                0.0,
                0.0
            ],
            "occlusionTexture": {
                "index": 4
            },
            "name": "_1_-_Default"
        },
        {
            "pbrMetallicRoughness": {
                "baseColorTexture": {
                    "index": 5
                },
                "metallicFactor": 0.0
            },
            "emissiveFactor": [
                0.0,
                0.0,
                0.0
            ],
            "occlusionTexture": {
                "index": 5
            },
            "name": "_3_-_Default"
        }
    ],
    "textures": [
        {
            "sampler": 0,
            "source": 0
        },
        {
            "sampler": 0,
            "source": 1
        },
        {
            "sampler": 0,
            "source": 2
        },
        {
            "sampler": 0,
            "source": 3
        },
        {
            "sampler": 0,
            "source": 4
        },
        {
            "sampler": 0,
            "source": 5
        }
    ],
    "images": [
        {
            "uri": "data:image/jpeg;base64,"
        },
        {
            "uri": "data:image/jpeg;base64,"
        },
        {
            "uri": "data:image/jpeg;base64,"
        },
        {
            "uri": "data:image/jpeg;base64,"
        },
        {
            "uri": "data:image/jpeg;base64,"
        },
        {
            "uri": "data:image/jpeg;base64,"
        }
    ],
    "samplers": [
        {
            "magFilter": 9729,
            "minFilter": 9986,
            "wrapS": 10497,
            "wrapT": 10497
        }
    ],
    "bufferViews": [
        {
            "buffer": 0,
            "byteOffset": 40608,
            "byteLength": 10440,
            "target": 34963
        },
        {
            "buffer": 0,
            "byteOffset": 0,
            "byteLength": 30456,
            "byteStride": 12,
            "target": 34962
        },
        {
            "buffer": 0,
            "byteOffset": 30456,
            "byteLength": 10152,
            "byteStride": 8,
            "target": 34962
        }
    ],
    "buffers": [
        {
            "byteLength": 51048,
            "uri": "data:application/octet-stream;base64,"
        }
    ]
}
